<svg xmlns="http://www.w3.org/2000/svg" width="121" height="33.64" viewBox="0 0 121 33.64">
  <g id="Group_5" data-name="Group 5" transform="translate(-1068 -254.36)">
    <path id="Path_1" data-name="Path 1" d="M52.3-10.162a5.835,5.835,0,0,0,.883-2.444,1.668,1.668,0,0,0-1.666-1.665,1.67,1.67,0,0,0-1.675,1.665,5.686,5.686,0,0,0,.887,2.547c.31.553.622,1.015.783,1.244C51.674-9.064,51.99-9.573,52.3-10.162Zm-1.852-2.4a1.066,1.066,0,0,1,1.065-1.064,1.066,1.066,0,0,1,1.065,1.064A1.066,1.066,0,0,1,51.517-11.5,1.066,1.066,0,0,1,50.452-12.56Z" transform="translate(1075.757 268.631)" fill="#ef5656"/>
    <circle id="Ellipse_1" data-name="Ellipse 1" cx="0.667" cy="0.667" r="0.667" transform="translate(1126.607 255.404)" fill="#ef5656"/>
    <path id="Path_2" data-name="Path 2" d="M46.522,3.851s-.166-.225-.393-.571a11.153,11.153,0,0,0-2.56-.84.2.2,0,1,0-.077.391,10.781,10.781,0,0,1,3.121,1.132" transform="translate(1080.542 256.357)" fill="#fff"/>
    <path id="Path_3" data-name="Path 3" d="M18.506,3.2a.2.2,0,0,1-.081-.381,11.187,11.187,0,0,1,3.321-.9.2.2,0,0,1,.044.4,10.779,10.779,0,0,0-3.2.87A.2.2,0,0,1,18.506,3.2Z" transform="translate(1098.926 256.739)" fill="#fff"/>
    <path id="Path_4" data-name="Path 4" d="M-2.871,2.9A1.668,1.668,0,0,0-4.537,1.236,1.67,1.67,0,0,0-6.212,2.9a5.691,5.691,0,0,0,.887,2.546c.308.549.622,1.013.783,1.243.164-.258.478-.765.788-1.346A6.105,6.105,0,0,0-2.871,2.9Zm-1.671,1.11A1.066,1.066,0,0,1-5.606,2.947,1.066,1.066,0,0,1-4.542,1.882,1.066,1.066,0,0,1-3.477,2.947,1.065,1.065,0,0,1-4.542,4.011Z" transform="translate(1116.939 257.239)" fill="#ef5656"/>
    <path id="Path_5" data-name="Path 5" d="M4.464,12.231a.2.2,0,0,0-.281-.017c-.17.152-.334.309-.493.471-.122.272-.265.563-.431.875-.138.259-.276.5-.4.716a10.878,10.878,0,0,1,1.592-1.765A.2.2,0,0,0,4.464,12.231Z" transform="translate(1110.277 249.211)" fill="#fff"/>
    <path id="Path_6" data-name="Path 6" d="M-1.762,5.173a.667.667,0,0,0-.666.667.667.667,0,0,0,.666.666A.667.667,0,0,0-1.1,5.84.667.667,0,0,0-1.762,5.173Z" transform="translate(1114.159 254.347)" fill="#ef5656"/>
    <path id="Path_7" data-name="Path 7" d="M17.833,18.67a25.277,25.277,0,0,1-2.627-.97c-1.994-.943-2.036-2.723-2.085-4.786l0-.158c-.031-1.275,1.717-2.221,3.354-2.826a9.3,9.3,0,0,0-6.815-.683,2.748,2.748,0,0,1-.3,2.519l-.159.181C8.14,13.153,6.169,15.4,6.261,17.1a2.8,2.8,0,0,0,.28,1.087c.339.764.341,1.063-1.824,2.831-.356.291-.734.569-1.122.834A9.364,9.364,0,0,0,5.5,24.729c.057-.122.115-.248.175-.382,1.3-2.946,2.339-4.447,3.085-4.463a.686.686,0,0,1,.624.455,1.307,1.307,0,0,0,.784.736,3.72,3.72,0,0,0,2.642-.733.924.924,0,0,1,.735-.07c1.032.293,2.473,2.114,4.285,5.4a9.356,9.356,0,0,0,3.482-5.416C21.006,19.721,19.325,19.164,17.833,18.67Z" transform="translate(1109.734 251.614)" fill="#01cbfd"/>
    <path id="Path_8" data-name="Path 8" d="M19.549,52.178a.535.535,0,0,0-.429.033c-1.306.741-2.246.985-2.955.768a1.706,1.706,0,0,1-1.025-.94c-.117-.236-.224-.238-.258-.233-.421.009-1.359,1.124-2.729,4.226-.082.185-.161.355-.239.517a9.311,9.311,0,0,0,11.7.884C21.9,54.3,20.453,52.435,19.549,52.178Z" transform="translate(1103.624 220.09)" fill="#31ca32"/>
    <path id="Path_9" data-name="Path 9" d="M44.4,13.771c-2.227.771-3.442,1.678-3.421,2.56l0,.158c.048,2.01.086,3.6,1.857,4.436a25.109,25.109,0,0,0,2.582.952,11.994,11.994,0,0,1,3.452,1.473A9.32,9.32,0,0,0,44.4,13.771Z" transform="translate(1082.272 248.03)" fill="#31ca32"/>
    <path id="Path_10" data-name="Path 10" d="M4.148,19.656a3.19,3.19,0,0,1-.314-1.227c-.1-1.869,1.863-4.1,3.036-5.441l.158-.18a2.49,2.49,0,0,0,.221-2.141A9.335,9.335,0,0,0,1.415,22.779c.352-.243.7-.5,1.02-.761C4.462,20.363,4.383,20.185,4.148,19.656Z" transform="translate(1111.763 250.311)" fill="#31ca32"/>
    <text id="I_was_there" data-name="I was    there" transform="translate(1069 259)" fill="#fff" font-size="25" font-family="Chiller-Regular, Chiller"><tspan x="0" y="21" xml:space="preserve">I was    there</tspan></text>
  </g>
</svg>
